<?xml version="1.0" standalone="no"?>
<!DOCTYPE svg PUBLIC "-//W3C//DTD SVG 20010904//EN"
 "http://www.w3.org/TR/2001/REC-SVG-20010904/DTD/svg10.dtd">
<svg version="1.0" xmlns="http://www.w3.org/2000/svg"
 width="505.000000pt" height="494.000000pt" viewBox="0 0 505.000000 494.000000"
 preserveAspectRatio="xMidYMid meet">

<g transform="translate(0.000000,494.000000) scale(0.100000,-0.100000)"
fill="#333333" stroke="none">
<path d="M2395 4895 c-11 -2 -64 -7 -119 -11 l-98 -6 3 -317 4 -316 -45 -13
c-85 -25 -275 -90 -340 -117 l-64 -28 -38 43 c-21 23 -83 102 -138 174 -187
244 -201 261 -216 264 -14 4 -56 -23 -289 -188 -77 -55 -173 -121 -212 -147
-40 -26 -73 -52 -73 -56 0 -5 15 -26 33 -46 151 -175 282 -328 331 -389 l58
-72 -108 -160 c-81 -121 -113 -160 -128 -160 -12 0 -102 22 -201 50 -324 89
-455 123 -460 118 -2 -2 -16 -44 -30 -94 -15 -49 -47 -159 -72 -244 -74 -253
-84 -292 -79 -297 3 -3 146 -41 317 -84 172 -43 316 -82 321 -87 5 -5 4 -45
-2 -93 -5 -46 -10 -138 -10 -204 l0 -120 -153 -43 c-269 -77 -468 -143 -473
-157 -7 -17 94 -401 136 -518 25 -67 36 -87 50 -87 11 0 99 22 197 49 176 49
406 112 419 115 4 0 11 -6 15 -14 89 -162 120 -213 170 -280 l59 -81 -54 -67
c-30 -37 -120 -147 -200 -245 -117 -142 -145 -182 -135 -193 6 -7 43 -37 82
-67 114 -85 378 -280 427 -316 l45 -32 20 24 c11 13 37 46 57 73 227 298 290
374 312 374 7 0 51 -17 97 -39 74 -34 234 -89 339 -117 l35 -10 0 -281 c0
-155 2 -284 5 -286 14 -14 357 -21 533 -11 106 6 193 12 195 13 1 0 2 129 2
286 0 220 3 287 13 290 219 70 287 94 362 130 l90 44 38 -42 c20 -23 74 -89
119 -147 45 -58 107 -134 137 -170 31 -36 65 -77 76 -92 l20 -28 170 128 c94
70 219 163 278 206 l107 79 -27 36 c-15 20 -60 75 -99 123 -40 48 -107 133
-150 190 -42 57 -87 114 -100 128 l-23 26 57 74 c32 41 89 124 127 183 49 79
73 107 84 104 21 -7 486 -137 533 -149 21 -6 43 -8 50 -5 31 11 210 614 187
628 -11 6 -324 93 -536 148 l-102 27 -5 190 c-3 104 -6 197 -8 208 -3 20 30
31 367 117 88 22 190 49 226 60 l67 19 -24 83 c-30 103 -175 529 -183 539 -4
4 -72 -12 -151 -36 -278 -85 -434 -128 -473 -129 -39 -2 -40 -1 -118 108 -43
61 -90 129 -104 152 -31 50 -30 54 58 157 227 262 338 400 329 407 -4 4 -97
71 -207 149 -110 79 -233 168 -274 198 l-74 55 -26 -30 c-65 -76 -301 -390
-337 -450 -10 -17 -17 -15 -100 24 -105 49 -250 99 -316 108 -36 5 -47 12 -52
28 -3 12 -6 158 -6 323 l0 301 -52 7 c-66 7 -446 16 -473 11z m365 -1120 c393
-68 736 -329 925 -705 95 -189 134 -351 142 -593 6 -195 -3 -268 -54 -431 -82
-261 -253 -494 -488 -669 -245 -182 -591 -271 -900 -233 -298 37 -530 151
-751 371 -229 227 -347 473 -386 803 -35 303 73 677 275 948 81 108 243 266
332 324 278 180 576 241 905 185z"/>
<path d="M2350 3346 c0 -123 -3 -231 -6 -240 -3 -9 -12 -16 -19 -16 -7 0 -53
-20 -103 -45 -71 -36 -103 -60 -158 -117 -65 -69 -134 -177 -134 -211 0 -26
-33 -29 -250 -26 -115 2 -212 0 -217 -4 -10 -11 -17 -323 -8 -393 l6 -51 182
3 c261 4 244 9 294 -95 71 -147 189 -256 343 -317 l70 -27 0 -217 c0 -182 2
-220 15 -230 12 -10 57 -12 184 -8 92 3 173 8 179 12 9 5 12 73 12 231 l0 224
88 43 c125 62 223 160 283 285 l44 91 235 4 235 3 9 125 c7 110 -3 302 -17
316 -2 3 -105 5 -228 6 l-224 1 -34 69 c-69 137 -180 240 -326 301 l-60 25 -3
229 c-2 200 -4 230 -19 241 -12 8 -68 12 -195 12 l-178 0 0 -224z m252 -537
c116 -25 218 -105 267 -209 35 -75 36 -206 2 -292 -27 -71 -98 -146 -171 -184
-52 -27 -62 -29 -175 -29 -111 0 -124 2 -170 27 -63 33 -140 114 -167 176 -69
155 -4 369 141 461 90 58 167 72 273 50z"/>
<path d="M2930 3372 l0 -130 78 -48 c91 -57 213 -178 261 -261 19 -32 41 -64
50 -70 9 -9 48 -13 108 -13 107 0 108 1 73 91 -74 187 -275 400 -477 505 -37
20 -74 40 -80 46 -10 8 -13 -17 -13 -120z"/>
<path d="M2044 3436 c-195 -104 -345 -256 -439 -444 -20 -40 -39 -89 -42 -109
l-6 -36 63 6 c35 4 80 7 100 7 35 0 39 3 96 91 65 101 147 184 245 246 104 68
99 59 99 178 0 126 2 125 -116 61z"/>
<path d="M1568 2053 c-16 -2 -28 -8 -28 -12 0 -20 74 -168 112 -224 91 -135
240 -263 399 -343 49 -24 93 -44 99 -44 6 0 10 42 10 110 0 124 11 106 -110
182 -81 51 -202 172 -260 261 -44 67 -44 67 -91 67 -26 0 -59 2 -75 4 -16 2
-41 2 -56 -1z"/>
<path d="M3314 2052 c-6 -4 -21 -25 -32 -47 -50 -98 -183 -230 -299 -297 l-53
-30 0 -123 0 -124 38 16 c129 53 217 114 330 226 103 101 202 253 236 365 7
22 7 22 -101 22 -59 0 -113 -4 -119 -8z"/>
</g>
</svg>
