<?xml version="1.0" standalone="no"?>
<!DOCTYPE svg PUBLIC "-//W3C//DTD SVG 20010904//EN"
 "http://www.w3.org/TR/2001/REC-SVG-20010904/DTD/svg10.dtd">
<svg version="1.0" xmlns="http://www.w3.org/2000/svg"
 width="500.000000pt" height="500.000000pt" viewBox="0 0 500.000000 500.000000"
 preserveAspectRatio="xMidYMid meet">

<g transform="translate(0.000000,500.000000) scale(0.100000,-0.100000)"
fill="#333333" stroke="none">
<path d="M2425 3984 c-27 -2 -69 -6 -92 -10 l-43 -5 0 -200 c0 -170 -2 -199
-15 -199 -16 0 -156 -48 -217 -74 -21 -9 -42 -16 -47 -16 -5 0 -62 66 -126
148 -64 81 -120 148 -123 149 -4 1 -87 -53 -185 -121 l-177 -124 52 -58 c29
-31 90 -102 134 -157 l82 -101 -66 -98 c-54 -81 -70 -98 -91 -98 -14 0 -98 20
-187 46 -90 25 -175 46 -190 47 -28 2 -28 1 -85 -188 -32 -104 -58 -192 -59
-196 0 -3 87 -27 193 -53 105 -27 197 -52 203 -57 7 -6 8 -31 1 -81 -5 -40 -6
-96 -4 -125 l5 -52 -71 -21 c-181 -53 -327 -101 -327 -108 0 -14 69 -258 88
-312 11 -31 26 -56 35 -58 9 -2 99 20 202 49 102 28 187 50 189 48 2 -2 19
-35 39 -74 19 -38 51 -90 70 -114 l35 -44 -62 -77 c-33 -42 -90 -112 -125
-154 -73 -90 -76 -80 36 -158 33 -24 94 -68 135 -99 132 -100 110 -100 186 -1
36 48 79 103 96 122 17 19 40 47 51 63 l20 27 80 -34 c44 -19 112 -43 150 -53
l70 -19 3 -180 2 -181 123 -5 c67 -3 169 -3 227 1 l105 6 3 181 2 181 88 27
c48 14 113 39 144 54 l58 28 82 -100 c46 -56 99 -122 118 -148 19 -26 37 -48
40 -48 3 0 39 26 81 58 163 123 185 140 227 169 l43 31 -78 93 c-43 52 -100
122 -126 157 l-47 62 43 58 c23 32 58 83 77 115 27 44 38 56 53 51 86 -27 332
-94 347 -94 16 0 27 25 64 143 53 169 71 236 63 244 -3 3 -92 29 -198 59 -106
30 -193 55 -194 56 -1 2 -5 60 -8 130 l-5 126 147 41 c80 22 170 46 200 53 29
6 55 17 58 24 2 6 -16 72 -41 145 -74 215 -82 234 -103 233 -10 -1 -85 -22
-166 -47 -82 -25 -167 -47 -190 -49 l-41 -3 -62 90 c-35 50 -63 95 -63 100 0
9 87 116 197 243 26 30 50 60 55 67 5 10 -27 37 -110 96 -65 45 -145 103 -177
128 l-59 45 -16 -24 c-9 -14 -34 -47 -57 -75 -22 -27 -64 -84 -94 -125 -29
-41 -57 -79 -61 -83 -3 -5 -25 1 -47 12 -56 29 -160 67 -204 75 l-38 7 0 199
0 199 -42 5 c-65 8 -227 14 -283 10z m195 -699 c188 -31 295 -83 428 -210 94
-89 127 -133 178 -235 62 -126 102 -330 89 -460 -16 -164 -87 -334 -189 -453
-84 -97 -141 -142 -252 -199 -309 -159 -671 -107 -917 131 -125 121 -178 210
-230 386 -17 56 -21 97 -21 210 1 131 3 146 33 240 18 55 54 138 80 183 80
145 236 292 373 351 49 21 193 58 248 64 69 8 86 7 180 -8z"/>
<path d="M2408 3153 c-16 -4 -18 -20 -18 -148 l0 -143 -71 -33 c-79 -37 -135
-91 -171 -170 l-23 -48 -145 -3 -145 -3 -3 -137 -3 -138 139 0 138 0 28 -60
c36 -75 121 -157 198 -190 l57 -25 3 -140 3 -140 65 -3 c36 -2 89 0 118 3 l52
6 0 140 0 139 59 29 c72 37 134 99 176 177 l32 59 145 3 146 3 6 87 c4 48 3
110 -1 137 l-8 50 -145 3 -145 3 -25 50 c-37 75 -96 131 -173 164 l-67 29 0
147 0 146 -37 7 c-42 6 -158 6 -185 -1z m187 -488 c86 -35 135 -111 135 -207
-1 -139 -90 -228 -228 -228 -78 0 -118 18 -171 75 -87 95 -79 230 19 318 28
25 67 50 87 55 43 11 113 6 158 -13z"/>
<path d="M2750 3032 l0 -79 48 -31 c58 -38 154 -134 179 -179 17 -32 19 -33
80 -33 75 0 77 5 32 90 -65 122 -150 205 -290 283 l-49 28 0 -79z"/>
<path d="M2205 3072 c-73 -40 -136 -86 -171 -124 -36 -38 -104 -139 -122 -181
-22 -51 -17 -57 47 -57 l59 0 30 48 c38 57 122 141 180 176 l42 26 0 70 c0 39
-3 70 -7 70 -5 0 -30 -13 -58 -28z"/>
<path d="M1904 2155 c48 -108 92 -161 201 -244 45 -34 145 -91 160 -91 3 0 5
33 5 73 l-1 72 -39 18 c-47 22 -143 114 -189 180 l-32 47 -64 0 -65 0 24 -55z"/>
<path d="M2977 2180 c-30 -50 -124 -146 -177 -180 l-50 -32 0 -74 c0 -41 3
-74 6 -74 18 0 128 67 182 111 77 62 192 223 192 269 0 6 -28 10 -68 10 -65 0
-68 -1 -85 -30z"/>
</g>
</svg>
