<?xml version="1.0" standalone="no"?>
<!DOCTYPE svg PUBLIC "-//W3C//DTD SVG 20010904//EN"
 "http://www.w3.org/TR/2001/REC-SVG-20010904/DTD/svg10.dtd">
<svg version="1.0" xmlns="http://www.w3.org/2000/svg"
 width="243.000000pt" height="244.000000pt" viewBox="0 0 243.000000 244.000000"
 preserveAspectRatio="xMidYMid meet">

<g transform="translate(0.000000,244.000000) scale(0.100000,-0.100000)"
fill="#333333" stroke="none">
<path d="M980 2400 c-248 -52 -457 -167 -627 -343 -219 -227 -333 -509 -333
-821 0 -247 66 -470 199 -668 63 -94 229 -261 320 -322 460 -308 1051 -269
1463 98 260 231 398 543 398 901 0 296 -119 588 -329 807 -172 181 -383 297
-629 348 -131 26 -339 27 -462 0z m495 -148 c44 -12 134 -49 200 -82 304 -153
498 -403 565 -730 19 -89 21 -127 17 -250 -6 -175 -31 -275 -106 -425 -46 -93
-144 -234 -166 -242 -6 -2 -18 27 -28 64 -37 141 -117 265 -239 368 -56 49
-175 115 -206 115 -10 0 -48 -13 -83 -29 -133 -60 -273 -66 -391 -16 -128 54
-130 54 -216 10 -59 -29 -100 -61 -173 -134 -106 -107 -153 -184 -185 -310
-10 -39 -23 -70 -29 -68 -22 7 -119 148 -166 242 -72 144 -99 251 -106 412 -9
201 23 357 109 527 57 114 116 192 218 290 146 139 307 225 500 267 118 26
369 21 485 -9z"/>
<path d="M1068 2021 c-83 -27 -138 -62 -201 -130 -176 -190 -170 -475 14 -652
137 -132 347 -174 506 -102 110 50 212 145 250 232 62 144 57 307 -15 431 -34
60 -115 144 -166 174 -113 66 -269 85 -388 47z"/>
</g>
</svg>
